<svg width="28" height="28" viewBox="0 0 28 28" fill="none" xmlns="http://www.w3.org/2000/svg">
<path d="M15.1667 8.16667L13.8652 5.56374C13.4906 4.8146 13.3034 4.44002 13.0239 4.16636C12.7769 3.92435 12.4791 3.7403 12.1521 3.62753C11.7824 3.5 11.3636 3.5 10.526 3.5H6.06668C4.75989 3.5 4.10649 3.5 3.60737 3.75432C3.16832 3.97802 2.81137 4.33498 2.58766 4.77402C2.33334 5.27315 2.33334 5.92654 2.33334 7.23333V8.16667M2.33334 8.16667H20.0667C22.0269 8.16667 23.007 8.16667 23.7556 8.54814C24.4142 8.8837 24.9496 9.41913 25.2852 10.0777C25.6667 10.8264 25.6667 11.8065 25.6667 13.7667V18.9C25.6667 20.8602 25.6667 21.8403 25.2852 22.589C24.9496 23.2475 24.4142 23.783 23.7556 24.1185C23.007 24.5 22.0269 24.5 20.0667 24.5H7.93334C5.97316 24.5 4.99307 24.5 4.24438 24.1185C3.58581 23.783 3.05038 23.2475 2.71482 22.589C2.33334 21.8403 2.33334 20.8602 2.33334 18.9V8.16667ZM14 20.4167C14 20.4167 17.5 18.7484 17.5 16.2461V13.3267L14.9478 12.4147C14.3346 12.1951 13.664 12.1951 13.0508 12.4147L10.5 13.3267V16.2461C10.5 18.7484 14 20.4167 14 20.4167Z" stroke="#344054" stroke-width="2" stroke-linecap="round" stroke-linejoin="round"/>
</svg>
